<?xml version="1.0" encoding="UTF-8"?>
<svg xmlns="http://www.w3.org/2000/svg" xmlns:xlink="http://www.w3.org/1999/xlink" width="50pt" height="39pt" viewBox="0 0 50 39" version="1.1">
<g id="surface1">
<path style=" stroke:none;fill-rule:nonzero;fill:rgb(0%,0%,0%);fill-opacity:1;" d="M 0.839844 11.121094 C 0.761719 11.335938 0.683594 11.394531 0.585938 11.273438 C 0.410156 11.042969 0.546875 12.460938 0.800781 13.511719 C 0.996094 14.273438 1.835938 15.753906 2.421875 16.347656 C 2.617188 16.542969 3.535156 16.710938 6.171875 17.046875 C 10.019531 17.519531 9.960938 17.472656 7.226562 18.144531 C 6.425781 18.34375 5.722656 18.554688 5.703125 18.632812 C 5.664062 18.691406 5.527344 18.707031 5.410156 18.648438 C 5.273438 18.601562 5.449219 18.753906 5.800781 18.996094 C 6.386719 19.410156 9.179688 20.65625 9.179688 20.519531 C 9.179688 20.476562 8.535156 20.171875 7.773438 19.835938 C 6.992188 19.5 6.171875 19.105469 5.957031 18.964844 C 5.742188 18.828125 5.957031 18.890625 6.445312 19.117188 C 6.933594 19.332031 8.203125 19.867188 9.277344 20.308594 L 11.230469 21.101562 L 16.699219 21.25 L 15.78125 21.617188 C 15.253906 21.832031 14.84375 22.042969 14.84375 22.105469 C 14.84375 22.164062 16.777344 22.714844 19.140625 23.324219 C 21.640625 23.980469 23.4375 24.527344 23.4375 24.632812 C 23.4375 24.878906 22.148438 25.546875 21.445312 25.671875 C 20.9375 25.777344 20.917969 25.792969 21.171875 26.1875 C 21.328125 26.402344 21.679688 26.75 21.953125 26.949219 C 22.226562 27.148438 22.402344 27.359375 22.363281 27.4375 C 22.128906 27.726562 22.636719 27.679688 22.96875 27.375 C 23.339844 27.054688 23.339844 27.054688 22.949219 27.269531 C 22.734375 27.390625 22.8125 27.253906 23.144531 26.964844 L 23.730469 26.429688 L 23.789062 27.117188 C 23.867188 27.894531 24.042969 28.03125 25 28.03125 C 25.957031 28.03125 26.132812 27.894531 26.210938 27.117188 L 26.269531 26.429688 L 26.855469 26.964844 C 27.1875 27.253906 27.265625 27.390625 27.050781 27.269531 C 26.660156 27.054688 26.660156 27.054688 27.03125 27.375 C 27.363281 27.679688 27.871094 27.726562 27.636719 27.4375 C 27.597656 27.359375 27.773438 27.148438 28.046875 26.949219 C 28.320312 26.75 28.671875 26.402344 28.808594 26.1875 C 29.082031 25.808594 29.0625 25.792969 28.359375 25.625 C 27.460938 25.410156 26.445312 24.785156 26.621094 24.558594 C 26.699219 24.464844 27.363281 24.253906 28.085938 24.070312 C 31.132812 23.308594 35.15625 22.179688 35.15625 22.074219 C 35.15625 22.027344 34.921875 21.890625 34.609375 21.800781 C 33.945312 21.585938 32.753906 20.945312 33.300781 21.101562 C 33.515625 21.160156 34.785156 21.191406 36.113281 21.175781 L 38.515625 21.160156 L 40.605469 20.335938 C 41.738281 19.882812 43.066406 19.332031 43.554688 19.117188 C 44.042969 18.90625 44.257812 18.828125 44.042969 18.953125 C 43.007812 19.5625 42.871094 19.667969 43.515625 19.394531 C 43.867188 19.242188 44.316406 18.980469 44.492188 18.828125 C 44.667969 18.660156 44.726562 18.585938 44.589844 18.632812 C 44.472656 18.691406 44.335938 18.691406 44.296875 18.617188 C 44.277344 18.554688 43.417969 18.3125 42.421875 18.050781 C 41.425781 17.808594 40.566406 17.566406 40.527344 17.519531 C 40.488281 17.472656 41.835938 17.277344 43.515625 17.078125 C 45.214844 16.878906 46.796875 16.652344 47.070312 16.558594 C 47.34375 16.46875 47.636719 16.390625 47.753906 16.390625 C 47.96875 16.375 49.21875 14.808594 49.21875 14.546875 C 49.21875 14.472656 48.945312 14.777344 48.613281 15.234375 C 48.300781 15.691406 47.929688 16.132812 47.8125 16.222656 C 47.714844 16.300781 47.890625 15.996094 48.203125 15.539062 C 48.535156 15.082031 48.945312 14.289062 49.101562 13.785156 C 49.414062 12.796875 49.628906 11 49.414062 11.273438 C 49.316406 11.378906 49.238281 11.320312 49.160156 11.121094 C 49.0625 10.816406 49.003906 10.832031 48.007812 11.457031 C 47.441406 11.820312 46.757812 12.234375 46.484375 12.386719 C 46.054688 12.613281 46.054688 12.628906 46.445312 12.492188 C 46.679688 12.402344 47.382812 12.003906 48.007812 11.625 C 48.808594 11.121094 48.964844 11.058594 48.535156 11.410156 C 47.753906 12.082031 46.152344 12.84375 45.878906 12.707031 C 45.722656 12.644531 45.703125 12.660156 45.78125 12.78125 C 46.015625 13.070312 43.222656 13.953125 37.988281 15.234375 C 35.976562 15.722656 32.851562 16.804688 31.855469 17.351562 C 31.210938 17.71875 30.976562 17.761719 31.171875 17.472656 C 31.25 17.367188 31.230469 17.335938 31.132812 17.414062 C 31.035156 17.488281 30.957031 17.59375 30.957031 17.671875 C 30.957031 17.734375 30.429688 18.097656 29.785156 18.480469 C 29.140625 18.859375 28.261719 19.453125 27.851562 19.789062 L 27.070312 20.398438 L 26.71875 19.941406 C 26.308594 19.421875 26.269531 19.285156 26.601562 19.4375 C 26.738281 19.5 26.757812 19.484375 26.679688 19.378906 C 26.601562 19.269531 26.347656 19.117188 26.113281 19.042969 C 25.683594 18.875 25.683594 18.875 26.074219 19.132812 L 26.464844 19.394531 L 26.074219 19.269531 C 25.097656 18.964844 24.492188 19.011719 23.867188 19.421875 C 23.535156 19.636719 23.203125 19.957031 23.144531 20.125 C 23.027344 20.398438 22.871094 20.324219 21.738281 19.5 C 21.054688 18.996094 20.136719 18.402344 19.707031 18.175781 C 19.296875 17.960938 19.003906 17.734375 19.042969 17.65625 C 19.101562 17.59375 19.042969 17.488281 18.925781 17.429688 C 18.769531 17.367188 18.75 17.382812 18.828125 17.488281 C 19.042969 17.761719 18.769531 17.703125 18.144531 17.351562 C 17.148438 16.804688 14.023438 15.722656 12.011719 15.234375 C 6.777344 13.953125 3.984375 13.070312 4.21875 12.78125 C 4.296875 12.660156 4.277344 12.644531 4.121094 12.707031 C 3.847656 12.84375 2.246094 12.082031 1.464844 11.410156 C 1.035156 11.058594 1.191406 11.121094 1.992188 11.625 C 2.617188 12.003906 3.320312 12.402344 3.554688 12.492188 C 3.945312 12.628906 3.945312 12.613281 3.515625 12.386719 C 3.242188 12.234375 2.558594 11.820312 1.992188 11.457031 C 0.996094 10.832031 0.9375 10.816406 0.839844 11.121094 Z M 0.839844 11.121094 "/>
</g>
</svg>
